<?xml version="1.0"?>
<svg width="475.452" height="475.451" xmlns="http://www.w3.org/2000/svg" xmlns:svg="http://www.w3.org/2000/svg" enable-background="new 0 0 475.452 475.451" version="1.1" xml:space="preserve">
 <g class="layer">
  <title>Layer 1</title>
  <g id="svg_1">
   <path d="m468.08,118.39c-3.99,-5.33 -9.61,-9.42 -16.85,-12.28c0.39,6.67 -0.09,12.09 -1.42,16.28l-85.65,281.79c-1.53,4.95 -4.86,8.9 -9.99,11.85c-5.14,2.95 -10.47,4.43 -15.99,4.43l-263.52,0c-22.84,0 -36.54,-6.66 -41.11,-19.99c-1.91,-5.14 -1.81,-9.23 0.29,-12.27c2.09,-2.86 5.7,-4.29 10.85,-4.29l248.1,0c17.7,0 29.93,-3.29 36.69,-9.85c6.76,-6.57 13.56,-21.18 20.41,-43.83l78.23,-258.67c4.18,-14.08 2.47,-26.45 -5.14,-37.11s-18.47,-15.99 -32.55,-15.99l-217.27,0c-2.47,0 -7.33,0.86 -14.56,2.57l0.28,-0.86c-5.33,-1.14 -9.85,-1.66 -13.56,-1.57c-3.71,0.1 -7.13,1.19 -10.27,3.29c-3.14,2.09 -5.67,4.33 -7.57,6.71c-1.9,2.38 -3.76,5.42 -5.57,9.13c-1.8,3.72 -3.33,7.14 -4.57,10.28c-1.23,3.14 -2.66,6.48 -4.28,10c-1.62,3.52 -3.18,6.42 -4.71,8.71c-1.14,1.52 -2.75,3.52 -4.85,5.99c-2.09,2.48 -3.81,4.67 -5.14,6.57c-1.33,1.9 -2.19,3.62 -2.56,5.14c-0.38,1.71 -0.19,4.23 0.57,7.57c0.76,3.32 1.04,5.75 0.85,7.27c-0.76,7.24 -3.38,16.42 -7.85,27.56c-4.47,11.13 -8.52,19.18 -12.13,24.12c-0.77,0.95 -2.86,3.09 -6.28,6.43c-3.43,3.33 -5.52,6.23 -6.28,8.7c-0.77,0.95 -0.81,3.62 -0.15,7.99c0.67,4.38 0.91,7.43 0.72,9.14c-0.77,6.47 -3.14,15.04 -7.14,25.7c-4,10.65 -8,19.41 -11.99,26.26c-0.57,1.14 -2.19,3.33 -4.86,6.57c-2.66,3.24 -4.28,5.9 -4.85,7.99c-0.38,1.52 -0.33,4.19 0.14,7.99c0.48,3.81 0.43,6.66 -0.14,8.56c-1.52,7.23 -4.38,15.94 -8.57,26.13c-4.18,10.18 -8.47,18.9 -12.85,26.12c-1.13,1.91 -2.71,4.15 -4.7,6.71c-2,2.57 -3.57,4.81 -4.72,6.71c-1.14,1.9 -1.9,3.9 -2.28,5.99c-0.19,1.15 0.1,3 0.86,5.58c0.76,2.56 1.05,4.61 0.85,6.14c-0.19,2.66 -0.57,6.18 -1.14,10.56c-0.57,4.38 -0.86,6.94 -0.86,7.7c-4.18,11.43 -4,23.51 0.58,36.27c5.33,14.84 14.79,27.36 28.4,37.54c13.61,10.19 27.74,15.27 42.4,15.27l263.52,0c12.37,0 24.03,-4.14 34.97,-12.41c10.95,-8.29 18.23,-18.51 21.84,-30.7l78.51,-258.66c4.19,-13.71 2.48,-25.99 -5.14,-36.83zm-303.77,0.57l6,-18.28c0.76,-2.47 2.33,-4.61 4.71,-6.42c2.38,-1.81 4.8,-2.71 7.28,-2.71l173.59,0c2.66,0 4.56,0.9 5.71,2.71c1.14,1.81 1.33,3.95 0.57,6.42l-6,18.28c-0.77,2.47 -2.33,4.61 -4.71,6.42c-2.39,1.81 -4.81,2.71 -7.28,2.71l-173.59,0c-2.66,0 -4.57,-0.9 -5.71,-2.71c-1.14,-1.81 -1.33,-3.95 -0.57,-6.42zm-23.69,73.08l5.99,-18.27c0.76,-2.47 2.33,-4.61 4.71,-6.42c2.38,-1.81 4.81,-2.71 7.28,-2.71l173.59,0c2.66,0 4.57,0.9 5.71,2.71c1.14,1.81 1.33,3.95 0.57,6.42l-6,18.28c-0.76,2.47 -2.33,4.61 -4.71,6.42c-2.38,1.81 -4.8,2.71 -7.28,2.71l-173.58,0c-2.67,0 -4.57,-0.9 -5.71,-2.71c-1.15,-1.81 -1.34,-3.95 -0.57,-6.43z" fill="#9ba4da" id="svg_2"/>
  </g>
  <g id="svg_3"/>
  <g id="svg_4"/>
  <g id="svg_5"/>
  <g id="svg_6"/>
  <g id="svg_7"/>
  <g id="svg_8"/>
  <g id="svg_9"/>
  <g id="svg_10"/>
  <g id="svg_11"/>
  <g id="svg_12"/>
  <g id="svg_13"/>
  <g id="svg_14"/>
  <g id="svg_15"/>
  <g id="svg_16"/>
  <g id="svg_17"/>
 </g>
</svg>