<?xml version="1.0"?>
<svg width="256" height="256" xmlns="http://www.w3.org/2000/svg" xmlns:svg="http://www.w3.org/2000/svg" data-name="Layer 2">
 <defs>
  <style>.cls-1{fill:#564c4d;}</style>
 </defs>
 <title/>
 <g class="layer">
  <title>Layer 1</title>
  <path d="m107.86,171.72a27.6,27.6 0 0 0 -4,-5.09l-14.49,-14.47a27.87,27.87 0 0 0 -39.4,0l-50,50l53.9,53.84l50,-50a27.86,27.86 0 0 0 3.99,-34.28zm-9.68,28.65l-44.31,44.32l-42.56,-42.56l44.32,-44.31a19.9,19.9 0 0 1 22.78,-3.82a20.08,20.08 0 0 1 5.31,3.81l14.46,14.46a19.26,19.26 0 0 1 3.79,5.33a19.85,19.85 0 0 1 -3.79,22.77z" fill="#9ba4da" id="svg_3"/>
  <path d="m252.78,3.34l-0.12,-0.12a11,11 0 0 0 -15.55,0l-141.11,141.11l0.87,0.87l15.26,-15.26a4.53,4.53 0 0 1 6.39,0l1.59,1.59l4.36,4.36l1.59,1.59a4.53,4.53 0 0 1 0,6.39l-15.26,15.26l0.87,0.87l23.22,-23.22l117.89,-117.89a11,11 0 0 0 0,-15.55zm-5.66,9.9l-116.39,116.39l-4.36,-4.36l116.39,-116.39a3,3 0 0 1 4.24,0l0.12,0.12a3,3 0 0 1 0,4.24z" fill="#9ba4da" id="svg_1"/>
  <path d="m134.89,136.78a10.84,10.84 0 0 0 -3,-6l-1.14,-1.14l-4.36,-4.36l-1.14,-1.14a10.84,10.84 0 0 0 -6,-3a14.26,14.26 0 0 0 -12.25,4.22l-22.72,22.78l-5.87,5.86a20.08,20.08 0 0 1 5.31,3.81l14.46,14.46a19.26,19.26 0 0 1 3.79,5.33l5.89,-5.89l22.78,-22.71a14.26,14.26 0 0 0 4.25,-12.22zm-31.32,29.58l-13.93,-13.93l22.49,-22.49a4.53,4.53 0 0 1 6.39,0l1.59,1.59l4.36,4.36l1.59,1.59a4.53,4.53 0 0 1 0,6.39l-22.49,22.49z" fill="#9ba4da" id="svg_2" transform="matrix(1 0 0 1 0 0)"/>
 </g>
</svg>